<svg width="135" height="135" viewBox="0 0 135 135" fill="none" xmlns="http://www.w3.org/2000/svg">
<path fill-rule="evenodd" clip-rule="evenodd" d="M67.5 0C30.2216 0 0 30.2216 0 67.5C0 104.778 30.2216 135 67.5 135C104.778 135 135 104.778 135 67.5C135 30.2216 104.778 0 67.5 0ZM96.7582 56.0864C97.2969 55.4705 97.7071 54.7532 97.9645 53.9765C98.2219 53.1998 98.3214 52.3795 98.2571 51.5638C98.1928 50.7481 97.966 49.9535 97.5901 49.2267C97.2142 48.4999 96.6967 47.8557 96.0681 47.3319C95.4395 46.808 94.7126 46.4152 93.9299 46.1765C93.1473 45.9378 92.3248 45.858 91.5109 45.9419C90.6969 46.0257 89.908 46.2715 89.1905 46.6648C88.4729 47.058 87.8413 47.5908 87.3327 48.2318L60.9464 79.8893L47.2929 66.2298C46.1356 65.112 44.5856 64.4935 42.9766 64.5074C41.3677 64.5214 39.8286 65.1668 38.6909 66.3045C37.5532 67.4423 36.9078 68.9813 36.8938 70.5903C36.8798 72.1992 37.4983 73.7493 38.6161 74.9066L57.0252 93.3157C57.6282 93.9183 58.35 94.3886 59.1448 94.6967C59.9396 95.0049 60.7899 95.144 61.6414 95.1053C62.493 95.0667 63.3271 94.851 64.0907 94.4721C64.8543 94.0931 65.5305 93.5593 66.0764 92.9045L96.7582 56.0864Z" fill="url(#paint0_linear_1760_1163)"/>
<defs>
<linearGradient id="paint0_linear_1760_1163" x1="12.2198" y1="21.0484" x2="91.2055" y2="21.9871" gradientUnits="userSpaceOnUse">
<stop stop-color="#EC1EB1"/>
<stop offset="1" stop-color="#5E01BA"/>
</linearGradient>
</defs>
</svg>
